<svg xmlns="http://www.w3.org/2000/svg" viewBox="0 0 1440 320">
<path fill="#000000" fill-opacity="1" d="M0,224L0,64L110.8,64L110.8,224L221.5,224L221.5,320L332.3,320L332.3,224L443.1,224L443.1,160L553.8,160L553.8,320L664.6,320L664.6,64L775.4,64L775.4,96L886.2,96L886.2,64L996.9,64L996.9,320L1107.7,320L1107.7,128L1218.5,128L1218.5,320L1329.2,320L1329.2,160L1440,160L1440,0L1329.2,0L1329.2,0L1218.5,0L1218.5,0L1107.7,0L1107.7,0L996.9,0L996.9,0L886.2,0L886.2,0L775.4,0L775.4,0L664.6,0L664.6,0L553.8,0L553.8,0L443.1,0L443.1,0L332.3,0L332.3,0L221.5,0L221.5,0L110.8,0L110.8,0L0,0L0,0Z"></path>
</svg>
