<svg xmlns="http://www.w3.org/2000/svg" viewBox="0 0 1440 320">
<path fill="#e5a1f8" fill-opacity="1" d="M0,192L0,192L60,192L60,160L120,160L120,192L180,192L180,96L240,96L240,160L300,160L300,192L360,192L360,128L420,128L420,288L480,288L480,64L540,64L540,256L600,256L600,128L660,128L660,224L720,224L720,96L780,96L780,256L840,256L840,224L900,224L900,64L960,64L960,288L1020,288L1020,288L1080,288L1080,64L1140,64L1140,96L1200,96L1200,96L1260,96L1260,96L1320,96L1320,32L1380,32L1380,160L1440,160L1440,0L1380,0L1380,0L1320,0L1320,0L1260,0L1260,0L1200,0L1200,0L1140,0L1140,0L1080,0L1080,0L1020,0L1020,0L960,0L960,0L900,0L900,0L840,0L840,0L780,0L780,0L720,0L720,0L660,0L660,0L600,0L600,0L540,0L540,0L480,0L480,0L420,0L420,0L360,0L360,0L300,0L300,0L240,0L240,0L180,0L180,0L120,0L120,0L60,0L60,0L0,0L0,0Z">
</path></svg>